<?xml version="1.0" standalone="no"?>
<!DOCTYPE svg PUBLIC "-//W3C//DTD SVG 20010904//EN"
 "http://www.w3.org/TR/2001/REC-SVG-20010904/DTD/svg10.dtd">
<svg version="1.0" xmlns="http://www.w3.org/2000/svg"
 width="260.000000pt" height="260.000000pt" viewBox="0 0 260.000000 260.000000"
 preserveAspectRatio="xMidYMid meet">
<metadata>
Created by potrace 1.14, written by Peter Selinger 2001-2017
</metadata>
<g transform="translate(0.000000,260.000000) scale(0.100000,-0.100000)"
fill="#000000" stroke="none">
<path d="M1300 2246 c0 -3 7 -12 16 -20 14 -15 14 -16 -5 -13 -11 2 -24 7 -28
12 -5 4 -1 5 7 0 8 -5 12 -4 7 0 -10 12 -38 15 -31 4 7 -12 -3 -11 -28 2 -16
8 -19 8 -13 -1 5 -9 1 -10 -14 -5 -13 4 -21 2 -21 -5 0 -6 4 -9 9 -6 5 3 15
-2 22 -11 12 -15 12 -16 -1 -8 -21 13 -40 15 -40 4 0 -5 -5 -9 -11 -9 -5 0 -7
5 -4 10 3 6 1 10 -4 10 -6 0 -11 -5 -11 -12 0 -6 -3 -9 -6 -5 -3 3 -17 -6 -31
-21 -15 -16 -24 -21 -23 -12 1 8 2 22 1 30 -1 13 -3 13 -10 1 -5 -8 -7 -21 -3
-30 3 -9 2 -13 -2 -9 -4 3 -16 -2 -27 -13 -11 -11 -25 -16 -36 -12 -16 6 -17
5 -3 -12 14 -17 14 -18 -7 -7 -19 11 -21 10 -18 -14 2 -18 -1 -22 -8 -15 -6 6
-16 11 -22 11 -5 0 -4 -4 3 -9 12 -7 12 -12 1 -30 -8 -11 -18 -21 -23 -21 -6
0 -5 5 2 12 7 7 12 17 12 23 0 5 -6 1 -13 -10 -14 -24 -16 -58 -4 -66 5 -3 1
-9 -8 -12 -9 -4 -13 -3 -10 3 3 6 0 10 -7 10 -10 0 -9 3 2 11 13 9 13 10 0 6
-9 -2 -14 -14 -13 -31 1 -15 -2 -24 -7 -21 -5 3 -7 -4 -5 -16 3 -15 0 -19 -10
-15 -8 3 -14 0 -12 -7 1 -7 -4 -11 -12 -9 -11 2 -12 0 -4 -10 6 -7 9 -21 8
-30 -2 -10 0 -18 4 -18 4 0 7 -9 7 -19 0 -11 -5 -17 -10 -14 -5 4 -7 -3 -4
-15 4 -12 2 -20 -2 -17 -5 3 -10 2 -13 -2 -2 -5 -2 -1 0 7 2 10 -2 8 -12 -4
-8 -11 -15 -14 -15 -8 0 7 -4 12 -10 12 -5 0 -8 -6 -6 -12 1 -7 1 -10 -1 -5
-3 4 -10 4 -15 1 -7 -4 -8 -2 -4 4 4 7 3 12 -3 12 -5 0 -12 -4 -15 -8 -7 -12
-91 -2 -115 12 -5 4 -7 -4 -5 -16 2 -13 2 -17 -2 -10 -3 7 -15 17 -27 24 -19
9 -20 9 -11 -3 9 -11 9 -17 -1 -26 -10 -10 -14 -9 -19 3 -4 10 -2 13 6 8 7 -4
8 -3 4 5 -10 15 -29 3 -22 -15 3 -7 1 -16 -5 -19 -5 -4 -6 -12 -3 -18 4 -7 3
-8 -1 -4 -13 11 -15 38 -3 31 7 -4 8 -2 4 4 -12 20 -26 13 -22 -10 3 -13 5
-29 5 -36 1 -7 5 -11 10 -7 5 3 13 0 17 -6 4 -7 3 -9 -2 -6 -6 3 -16 -3 -22
-14 -11 -17 -10 -20 5 -17 12 2 17 -2 14 -12 -2 -8 -4 -21 -4 -27 -1 -21 -17
-15 -27 10 -6 16 -9 17 -9 5 -1 -9 4 -20 9 -23 6 -4 7 -11 4 -17 -4 -6 1 -8
16 -3 20 6 21 5 9 -8 -8 -8 -18 -12 -23 -9 -5 3 -6 0 -2 -7 6 -9 11 -9 21 -1
12 10 14 2 6 -28 -1 -1 -11 2 -22 9 -17 9 -20 8 -13 -3 12 -19 14 -37 3 -44
-12 -7 -12 -34 1 -34 5 0 6 7 3 17 -4 10 -2 14 5 9 7 -4 10 0 7 12 -2 11 3 19
11 19 10 0 11 -4 3 -13 -7 -8 -6 -14 3 -17 10 -4 10 -6 1 -6 -17 -1 -17 -28 0
-34 9 -4 9 -6 0 -6 -7 -1 -13 -12 -13 -25 0 -14 -5 -28 -10 -31 -6 -4 -7 -11
-4 -17 4 -6 9 -5 15 3 4 7 11 10 16 6 4 -5 1 -12 -7 -17 -13 -8 -12 -12 5 -25
11 -9 13 -13 5 -9 -8 4 -24 14 -35 23 -13 10 -16 11 -8 1 17 -18 17 -43 1 -34
-10 5 -10 3 0 -7 11 -12 14 -12 21 0 6 9 11 10 15 2 4 -6 4 -11 -1 -11 -13 0
-32 -49 -22 -56 5 -3 9 0 9 6 0 6 5 8 11 5 6 -4 -3 -17 -22 -31 -34 -24 -33
-32 1 -14 25 13 33 -2 15 -26 -15 -18 -15 -18 -9 1 4 15 3 16 -4 6 -5 -7 -7
-22 -5 -32 5 -19 6 -19 20 -2 13 17 13 16 4 -3 -6 -12 -7 -24 -4 -28 3 -3 1
-6 -6 -6 -6 0 -16 10 -21 23 -6 16 -9 17 -9 5 -1 -9 4 -20 9 -23 6 -4 7 -11 4
-17 -4 -6 1 -8 16 -3 20 6 21 5 9 -8 -8 -8 -18 -12 -23 -9 -5 3 -6 0 -2 -7 6
-9 11 -9 21 -1 12 10 14 2 6 -28 -1 -1 -11 2 -22 9 -17 9 -20 8 -13 -3 12 -19
14 -37 3 -44 -12 -7 -12 -34 1 -34 5 0 6 7 3 17 -4 10 -2 14 5 9 7 -4 10 0 7
12 -2 11 3 19 11 19 10 0 11 -4 3 -13 -7 -8 -6 -14 3 -17 10 -4 10 -6 1 -6
-17 -1 -17 -28 0 -34 9 -4 9 -6 0 -6 -7 -1 -13 -12 -13 -25 0 -14 -5 -28 -10
-31 -6 -4 -7 -11 -4 -17 4 -6 9 -5 15 3 4 7 11 10 16 6 4 -5 1 -12 -7 -17 -13
-8 -12 -12 5 -25 11 -9 13 -13 5 -9 -8 4 -24 14 -35 23 -13 10 -16 11 -8 1 17
-18 17 -43 1 -34 -10 5 -10 3 0 -7 11 -12 14 -12 21 0 6 9 11 10 15 2 4 -6 4
-11 -1 -11 -13 0 -32 -49 -22 -56 5 -3 9 0 9 6 0 6 5 8 11 5 6 -5 3 -12 -10
-21 -13 -9 -18 -21 -14 -31 5 -12 3 -14 -8 -8 -11 7 -12 6 -2 -7 7 -8 9 -19 5
-23 -4 -5 -2 -6 3 -2 6 3 17 2 25 -3 13 -8 13 -13 2 -31 -8 -11 -9 -18 -3 -14
6 3 11 0 11 -7 0 -9 3 -9 11 2 8 12 9 11 7 -5 -2 -12 2 -19 10 -17 8 1 11 -2
7 -8 -3 -6 -10 -8 -14 -6 -3 3 -7 -4 -7 -14 0 -14 3 -16 13 -8 9 7 13 7 13 -1
0 -7 5 -9 12 -5 7 5 9 2 5 -9 -8 -22 16 -40 33 -24 10 10 11 9 5 -2 -6 -11 -4
-13 8 -8 9 3 19 2 22 -4 4 -5 11 -7 16 -4 5 4 6 -2 2 -12 -6 -16 -4 -16 18 2
13 11 18 13 11 5 -16 -18 -16 -31 1 -28 6 2 11 -3 9 -11 -3 -12 0 -12 12 -2 8
7 21 9 28 5 10 -6 11 -5 1 7 -10 12 -8 15 7 15 10 0 16 -4 14 -8 -3 -4 0 -8 6
-8 6 0 8 -5 4 -12 -4 -7 -3 -8 5 -4 6 4 9 12 6 17 -8 12 2 11 27 -2 17 -9 20
-9 15 3 -3 8 1 15 9 15 7 0 11 -4 8 -9 -3 -4 0 -8 6 -8 6 0 8 -5 4 -12 -4 -7
-3 -8 5 -4 6 4 9 12 6 17 -8 12 2 11 27 -2 18 -10 20 -9 15 5 -3 8 -1 18 5 22
7 4 8 3 4 -4 -4 -7 -2 -12 4 -12 6 0 9 -4 5 -9 -3 -5 0 -13 6 -17 8 -4 9 -3 5
4 -9 15 28 16 57 1 14 -7 12 -2 -8 14 -16 14 -34 23 -39 20 -5 -4 -6 -1 -2 5
5 8 15 6 34 -8 17 -13 47 -21 82 -23 30 -1 62 -7 70 -12 13 -8 13 -7 1 8 -8
10 -23 15 -37 13 -14 -3 -22 -1 -19 4 3 4 17 6 33 4 90 -15 122 -16 122 -3 0
11 2 11 9 -1 6 -8 7 -19 4 -25 -3 -5 0 -4 8 3 16 14 63 17 54 2 -10 -16 1 -11
16 7 12 14 12 16 0 8 -9 -5 -12 -4 -8 3 4 5 17 9 30 6 78 -13 110 -15 125 -8
9 4 26 9 37 11 16 2 17 1 5 -6 -8 -5 -17 -8 -20 -6 -4 2 -7 -3 -7 -11 0 -10 4
-11 11 -4 5 5 20 10 33 10 13 0 23 6 23 13 0 8 3 7 9 -3 6 -8 7 -19 4 -25 -3
-5 0 -4 8 3 16 14 63 17 54 2 -10 -16 1 -11 16 7 12 14 12 16 0 8 -9 -5 -12
-4 -8 3 4 5 17 9 30 6 86 -14 109 -16 103 -5 -5 7 -1 9 8 5 9 -3 13 -10 10
-15 -3 -5 2 -6 11 -3 11 5 13 10 5 19 -8 10 -3 12 20 9 19 -2 29 0 25 6 -11
17 7 11 21 -7 13 -17 14 -17 7 1 -5 15 -3 18 10 13 12 -4 15 -1 12 16 -4 21
-4 21 10 3 16 -21 20 -13 15 29 -2 20 -2 20 16 0 11 -11 16 -16 12 -11 -4 5 0
15 8 23 12 12 12 18 2 31 -11 13 -11 14 0 8 9 -5 15 -1 19 13 3 11 9 18 14 15
5 -3 9 0 9 5 0 6 -4 11 -9 11 -5 0 -8 8 -6 18 1 9 9 16 17 16 11 -1 15 7 13
30 -2 17 1 36 6 42 5 7 3 11 -6 11 -8 0 -12 -4 -10 -8 6 -9 -22 -5 -32 5 -4 4
-2 6 6 4 7 -2 16 3 19 11 2 8 1 11 -4 8 -5 -3 -10 6 -11 20 0 16 2 21 7 13 5
-8 10 -9 14 -2 3 6 2 13 -3 17 -6 3 -7 13 -4 23 6 15 5 16 -13 2 -18 -14 -18
-14 -5 2 7 10 17 15 22 12 5 -3 10 0 10 5 1 6 2 16 3 21 0 6 8 15 16 20 21 13
3 12 -22 -1 -17 -9 -18 -13 -7 -20 9 -6 10 -9 2 -9 -17 0 -25 17 -12 26 8 4 7
9 -2 16 -11 8 -10 9 3 4 26 -8 31 11 9 33 -16 16 -17 20 -5 25 10 4 13 2 8 -7
-5 -8 -2 -7 9 2 9 7 17 19 17 25 0 7 -3 8 -8 1 -9 -13 -27 -13 -39 -1 -5 5 -3
6 5 2 7 -4 12 -1 12 8 0 8 -5 16 -12 18 -7 3 -5 7 6 11 9 4 15 3 11 -2 -3 -5
0 -13 7 -17 7 -4 10 -4 6 1 -4 4 -3 14 4 22 6 7 8 16 4 20 -3 3 -6 1 -6 -7 0
-10 -3 -10 -14 0 -8 6 -12 19 -9 28 6 15 5 16 -13 2 -18 -14 -18 -14 -5 2 7
10 17 16 21 13 4 -3 11 2 14 11 8 21 8 24 -5 24 -5 0 -7 -5 -4 -10 3 -5 1 -10
-5 -10 -7 0 -9 8 -5 21 5 16 4 19 -5 14 -9 -5 -11 -4 -6 4 6 9 11 9 22 0 13
-11 13 -9 3 14 -10 23 -15 25 -28 14 -14 -11 -14 -10 -2 6 11 14 16 15 29 5
13 -11 14 -11 8 0 -4 7 -3 19 3 26 8 9 7 13 -4 13 -8 0 -12 -4 -10 -8 6 -9
-22 -5 -32 5 -4 4 -2 6 6 4 7 -2 16 3 19 11 2 8 0 11 -5 8 -11 -7 -11 29 0 39
12 12 8 26 -5 18 -7 -4 -8 -3 -4 5 6 9 11 9 22 0 13 -11 13 -9 3 14 -10 23
-15 25 -28 14 -14 -11 -14 -10 -2 6 11 14 16 15 29 5 13 -11 14 -11 8 0 -4 7
-3 19 3 26 8 9 7 13 -4 13 -8 0 -12 -4 -10 -8 6 -9 -22 -5 -32 5 -4 4 -2 6 6
4 7 -2 16 3 19 11 2 8 1 11 -4 8 -5 -3 -10 6 -11 20 0 16 2 21 7 13 5 -8 10
-9 14 -2 3 6 2 13 -3 17 -6 3 -7 13 -4 23 6 15 5 16 -13 2 -18 -14 -18 -14 -5
2 7 10 17 15 22 12 5 -3 10 0 10 5 1 6 2 16 3 21 0 6 8 15 16 20 21 13 3 12
-22 -1 -17 -9 -18 -13 -7 -20 9 -6 10 -9 2 -9 -17 0 -25 17 -12 26 8 4 7 9 -2
16 -11 8 -10 9 3 4 26 -8 31 11 9 33 -16 16 -17 20 -5 25 10 4 13 2 8 -7 -5
-8 -2 -7 9 2 9 7 17 19 17 25 0 7 -3 8 -8 1 -9 -13 -27 -13 -39 -1 -5 5 -3 6
5 2 7 -4 12 -1 12 8 0 9 -6 16 -12 16 -10 0 -9 3 1 9 8 6 10 14 5 22 -13 21
-14 39 -2 39 6 0 7 -7 4 -16 -4 -10 -2 -13 6 -8 7 5 8 3 3 -6 -5 -9 -4 -11 3
-6 15 9 16 -6 1 -21 -8 -8 -7 -13 3 -18 7 -5 10 -5 6 0 -4 4 -3 14 3 21 7 9 6
20 -6 38 -14 21 -23 25 -47 21 -27 -5 -29 -3 -23 17 5 22 5 22 -9 -2 -9 -14
-15 -19 -16 -11 0 8 -3 11 -6 8 -4 -3 -16 -1 -28 5 -18 9 -19 9 -9 -3 9 -12 6
-14 -17 -14 -16 -1 -26 3 -24 7 3 4 -2 8 -11 8 -9 0 -13 -4 -10 -10 10 -17 -7
-11 -22 8 -8 9 -12 12 -9 6 3 -7 -2 -18 -11 -25 -9 -8 -14 -9 -10 -3 3 6 0 20
-8 30 -13 18 -14 18 -9 -6 2 -14 1 -19 -2 -12 -5 10 -9 10 -22 0 -13 -11 -14
-11 -7 1 6 10 4 13 -6 9 -11 -4 -14 2 -13 21 0 14 -4 39 -9 55 -7 20 -7 34 2
47 14 23 3 25 -14 2 -9 -13 -14 -13 -20 -3 -5 9 -4 11 3 6 7 -4 12 -1 12 9 0
9 -4 14 -8 11 -4 -3 -7 8 -6 25 1 18 -2 27 -9 22 -6 -4 -8 0 -4 10 4 11 1 17
-8 17 -18 0 -19 12 -3 28 9 9 9 12 0 12 -7 0 -12 -6 -12 -12 0 -7 -9 2 -20 20
-11 18 -28 32 -39 32 -27 0 -35 17 -14 29 17 10 17 10 1 11 -27 0 -33 -4 -31
-19 1 -9 -2 -10 -9 -3 -8 8 -6 19 7 39 13 20 14 24 3 16 -8 -7 -19 -9 -23 -5
-5 4 -5 2 -2 -5 5 -7 0 -9 -13 -6 -11 3 -20 10 -20 15 0 5 5 6 10 3 6 -3 10
-1 10 4 0 17 -18 13 -30 -6 -10 -15 -11 -15 -6 -1 6 21 -18 56 -28 40 -4 -7
-12 -12 -17 -12 -6 0 -8 4 -5 8 2 4 1 14 -3 21 -6 10 -10 9 -14 -4 -5 -11 -3
-14 6 -9 8 5 7 2 -2 -9 -15 -18 -26 -23 -16 -7 3 6 2 10 -4 10 -6 0 -8 6 -5
13 3 8 -2 14 -10 14 -8 0 -12 -5 -9 -10 3 -5 0 -7 -8 -5 -8 3 -13 11 -11 17 1
6 -3 11 -9 11 -6 0 -9 -7 -5 -15 3 -8 1 -15 -4 -15 -6 0 -10 3 -10 8 0 4 -9
13 -20 20 -11 7 -20 10 -20 8z m-60 -173 c-10 -28 -10 -28 6 -5 17 22 44 30
44 12 0 -5 5 -10 11 -10 6 0 9 7 6 14 -4 11 -1 13 11 9 9 -4 20 -11 24 -17 5
-7 8 -7 8 2 0 6 5 12 10 12 6 0 10 -6 10 -14 0 -12 7 -13 31 -6 25 7 29 7 20
-4 -8 -10 -4 -16 17 -25 24 -10 25 -10 9 3 -16 12 -16 14 -2 20 9 3 14 2 11
-2 -3 -5 4 -14 14 -22 10 -8 16 -18 13 -24 -4 -6 1 -4 12 4 17 14 17 13 10
-10 -7 -23 -7 -24 10 -10 17 14 18 14 5 -10 -10 -21 -10 -23 1 -12 19 18 34
15 18 -5 -10 -11 -10 -14 -1 -9 6 4 12 3 12 -2 0 -5 9 -12 19 -15 15 -4 18
-11 14 -27 -4 -15 -2 -21 5 -16 6 3 13 2 17 -3 3 -6 -3 -8 -13 -6 -11 2 -19
-3 -19 -11 0 -9 6 -13 14 -10 9 4 11 1 7 -6 -5 -8 -1 -9 12 -5 18 7 18 6 2 -7
-10 -7 -18 -16 -18 -20 0 -3 8 -7 18 -7 16 -1 16 -2 0 -6 -10 -2 -18 -9 -18
-15 0 -5 7 -8 15 -5 8 4 17 3 19 -2 3 -4 0 -8 -7 -8 -7 0 -23 -3 -36 -7 -15
-6 -21 -5 -17 2 3 6 2 14 -4 17 -6 4 -10 3 -9 -2 3 -20 -2 -25 -15 -14 -11 9
-16 9 -22 0 -4 -7 -3 -9 3 -6 6 4 14 0 17 -8 4 -12 2 -13 -12 -7 -9 5 -43 8
-74 7 -32 -1 -58 2 -58 7 0 4 -5 8 -11 8 -5 0 -8 -4 -4 -9 3 -6 -4 -8 -17 -5
-68 13 -81 14 -96 2 -12 -10 -14 -10 -8 0 4 6 3 12 -3 12 -5 0 -12 -4 -15 -8
-5 -8 -41 -7 -85 2 -13 3 -29 2 -35 -2 -17 -10 -37 -11 -30 -1 3 5 -5 7 -18 5
-13 -3 -23 -5 -23 -6 0 -1 -8 -3 -18 -5 -9 -2 -15 1 -11 6 3 5 1 9 -5 9 -6 0
-7 7 -4 17 4 11 3 14 -5 9 -7 -4 -12 -2 -12 3 0 10 14 15 33 12 5 -1 6 3 2 8
-3 6 -12 8 -20 5 -10 -4 -13 0 -10 16 2 13 7 25 10 28 2 3 0 11 -6 18 -7 8 -6
14 2 20 7 4 9 3 5 -4 -3 -6 -2 -13 4 -17 7 -4 7 -13 -1 -28 -9 -20 -9 -20 4
-5 8 10 16 15 19 12 4 -3 9 0 13 6 3 6 1 9 -6 8 -16 -4 -19 40 -2 53 7 6 10
16 6 23 -4 6 2 4 12 -4 17 -14 18 -13 12 2 -4 12 0 19 14 23 10 4 20 11 20 16
1 5 2 15 3 22 0 6 6 12 11 12 6 0 16 4 24 9 10 6 12 5 7 -2 -4 -7 -2 -12 3
-12 6 0 11 5 11 10 0 7 6 7 19 0 14 -7 22 -7 27 2 4 6 3 8 -4 4 -6 -3 -13 -2
-17 4 -3 5 -1 10 5 10 6 0 9 4 6 8 -3 5 1 9 9 9 8 0 12 -4 9 -9 -3 -4 -1 -8 4
-8 6 0 12 7 16 15 10 27 16 16 6 -12z m-348 -170 c-6 -2 -10 -9 -7 -14 4 -5
-1 -6 -9 -3 -20 8 -11 24 12 23 11 0 12 -2 4 -6z m-215 -145 c-3 -8 -6 -5 -6
6 -1 11 2 17 5 13 3 -3 4 -12 1 -19z m480 0 c-3 -8 -6 -5 -6 6 -1 11 2 17 5
13 3 -3 4 -12 1 -19z m133 18 c0 -3 -4 -8 -10 -11 -5 -3 -10 -1 -10 4 0 6 5
11 10 11 6 0 10 -2 10 -4z m765 -166 c3 -6 -1 -7 -9 -4 -18 7 -21 14 -7 14 6
0 13 -4 16 -10z m0 -640 c3 -6 -1 -7 -9 -4 -18 7 -21 14 -7 14 6 0 13 -4 16
-10z m1 -235 c1 -9 -4 -11 -14 -7 -10 4 -12 7 -4 10 7 2 9 9 5 15 -3 7 -2 8 2
4 5 -4 10 -14 11 -22z m-1501 -15 c-3 -5 -1 -10 6 -10 7 0 10 -3 6 -6 -9 -9
-28 6 -22 17 4 5 8 9 11 9 3 0 2 -4 -1 -10z m1455 -116 c0 -8 -19 -13 -24 -6
-3 5 1 9 9 9 8 0 15 -2 15 -3z m-805 -92 c-3 -3 -11 0 -18 7 -9 10 -8 11 6 5
10 -3 15 -9 12 -12z m-435 -12 c0 -5 -2 -10 -4 -10 -3 0 -8 5 -11 10 -3 6 -1
10 4 10 6 0 11 -4 11 -10z m560 6 c0 -2 -7 -7 -16 -10 -8 -3 -12 -2 -9 4 6 10
25 14 25 6z m320 0 c0 -2 -7 -7 -16 -10 -8 -3 -12 -2 -9 4 6 10 25 14 25 6z"/>
<path d="M1113 2023 c0 -7 4 -13 8 -13 4 0 9 6 12 13 3 8 0 14 -7 14 -7 0 -13
-6 -13 -14z"/>
<path d="M1150 2019 c0 -5 5 -7 10 -4 6 3 10 8 10 11 0 2 -4 4 -10 4 -5 0 -10
-5 -10 -11z"/>
<path d="M1042 1941 c-11 -7 -11 -9 0 -14 9 -3 15 1 15 9 0 8 -1 14 -1 14 -1
0 -7 -4 -14 -9z"/>
<path d="M1550 1925 c0 -8 5 -15 11 -15 5 0 8 4 5 9 -4 5 0 12 6 14 8 3 6 6
-4 6 -10 1 -18 -6 -18 -14z"/>
<path d="M1026 1797 c3 -10 9 -15 12 -12 3 3 0 11 -7 18 -10 9 -11 8 -5 -6z"/>
<path d="M1160 1806 c0 -2 8 -10 18 -17 15 -13 16 -12 3 4 -13 16 -21 21 -21
13z"/>
<path d="M1016 2138 c3 -4 11 -5 19 -1 21 7 19 12 -4 10 -11 0 -18 -5 -15 -9z"/>
<path d="M1598 2103 c6 -2 18 -2 25 0 6 3 1 5 -13 5 -14 0 -19 -2 -12 -5z"/>
<path d="M680 1806 c0 -2 8 -10 18 -17 15 -13 16 -12 3 4 -13 16 -21 21 -21
13z"/>
<path d="M515 1700 c-3 -5 -1 -10 4 -10 6 0 11 5 11 10 0 6 -2 10 -4 10 -3 0
-8 -4 -11 -10z"/>
<path d="M545 1649 c-4 -6 -5 -12 -2 -15 2 -3 7 2 10 11 7 17 1 20 -8 4z"/>
<path d="M2070 1486 c0 -8 4 -17 9 -20 5 -4 7 3 4 14 -6 23 -13 26 -13 6z"/>
<path d="M2050 1461 c0 -5 5 -13 10 -16 6 -3 10 -2 10 4 0 5 -4 13 -10 16 -5
3 -10 2 -10 -4z"/>
<path d="M510 1435 c0 -2 6 -8 13 -14 10 -8 14 -7 14 2 0 8 -6 14 -14 14 -7 0
-13 -1 -13 -2z"/>
<path d="M2046 1321 c-3 -4 1 -17 9 -27 8 -10 15 -14 15 -8 0 5 -5 15 -12 22
-16 16 4 16 22 0 12 -11 12 -10 1 5 -15 19 -27 22 -35 8z"/>
<path d="M510 955 c0 -2 6 -8 13 -14 10 -8 14 -7 14 2 0 8 -6 14 -14 14 -7 0
-13 -1 -13 -2z"/>
<path d="M2070 846 c0 -8 4 -17 9 -20 5 -4 7 3 4 14 -6 23 -13 26 -13 6z"/>
<path d="M2050 821 c0 -5 5 -13 10 -16 6 -3 10 -2 10 4 0 5 -4 13 -10 16 -5 3
-10 2 -10 -4z"/>
<path d="M540 670 c-9 -6 -10 -10 -3 -10 6 0 15 5 18 10 8 12 4 12 -15 0z"/>
<path d="M2035 619 c-4 -6 -5 -12 -2 -15 2 -3 7 2 10 11 7 17 1 20 -8 4z"/>
<path d="M681 514 c0 -11 3 -14 6 -6 3 7 2 16 -1 19 -3 4 -6 -2 -5 -13z"/>
<path d="M1390 488 c0 -6 3 -8 7 -5 3 4 13 1 22 -6 14 -11 14 -10 2 6 -15 20
-31 22 -31 5z"/>
<path d="M1710 488 c0 -6 3 -8 7 -5 3 4 13 1 22 -6 14 -11 14 -10 2 6 -15 20
-31 22 -31 5z"/>
</g>
</svg>
